<?xml version="1.0"?>
<svg xmlns="http://www.w3.org/2000/svg" viewBox="0 0 512 512" width="512" height="512"><g id="Outline"><path d="M56,296H72V280H56a24,24,0,1,1,0-48H80v16H96V232h96v16H120a32.036,32.036,0,0,0-32,32V424a8,8,0,0,0,13.657,5.657l35.029-35.03a8.971,8.971,0,0,1,12.687,12.687l-27.03,27.029a8,8,0,0,0-1,10.095,35.174,35.174,0,0,1,0,39.124A8,8,0,0,0,120,488v8h16v-5.687A51.361,51.361,0,0,0,140.7,480H352V464H144V435.314l16.686-16.687A24.966,24.966,0,0,0,144,376.025V264H368V376.025a24.966,24.966,0,0,0-16.686,42.6l22.7,22.7A51.1,51.1,0,0,0,376,490.313V496h16v-8a7.993,7.993,0,0,0-1.344-4.438,35.174,35.174,0,0,1,0-39.124,8,8,0,0,0-1-10.095l-27.03-27.029a8.971,8.971,0,0,1,12.687-12.687l35.029,35.03A8,8,0,0,0,424,424V363.313l8.971,8.971A23.847,23.847,0,0,1,440,389.255V496h16V389.255a39.735,39.735,0,0,0-11.716-28.284L424,340.687V280a32.036,32.036,0,0,0-32-32H320V232h96v16h16V232h24a24,24,0,1,1,0,48H440v16h16a40,40,0,0,0,0-80H432v-8.679A48.07,48.07,0,0,0,472,160v-8a8,8,0,0,0-8-8,47.806,47.806,0,0,0-32,12.261v-12.94A48.07,48.07,0,0,0,472,96V88a8,8,0,0,0-8-8,47.806,47.806,0,0,0-32,12.261V79.321A48.07,48.07,0,0,0,472,32V24a8,8,0,0,0-8-8,47.989,47.989,0,0,0-40,21.507A47.989,47.989,0,0,0,384,16a8,8,0,0,0-8,8v8a48.07,48.07,0,0,0,40,47.321v12.94A47.806,47.806,0,0,0,384,80a8,8,0,0,0-8,8v8a48.07,48.07,0,0,0,40,47.321v12.94A47.806,47.806,0,0,0,384,144a8,8,0,0,0-8,8v8a48.07,48.07,0,0,0,40,47.321V216H320v-8.679A48.07,48.07,0,0,0,360,160v-8a8,8,0,0,0-8-8,47.806,47.806,0,0,0-32,12.261v-12.94A48.07,48.07,0,0,0,360,96V88a8,8,0,0,0-8-8,47.806,47.806,0,0,0-32,12.261V79.321A48.07,48.07,0,0,0,360,32V24a8,8,0,0,0-8-8,47.989,47.989,0,0,0-40,21.507A47.989,47.989,0,0,0,272,16a8,8,0,0,0-8,8v8a48.07,48.07,0,0,0,40,47.321v12.94A47.806,47.806,0,0,0,272,80a8,8,0,0,0-8,8v8a48.07,48.07,0,0,0,40,47.321v12.94A47.806,47.806,0,0,0,272,144a8,8,0,0,0-8,8v8a48.07,48.07,0,0,0,40,47.321V216H208v-8.679A48.07,48.07,0,0,0,248,160v-8a8,8,0,0,0-8-8,47.806,47.806,0,0,0-32,12.261v-12.94A48.07,48.07,0,0,0,248,96V88a8,8,0,0,0-8-8,47.806,47.806,0,0,0-32,12.261V79.321A48.07,48.07,0,0,0,248,32V24a8,8,0,0,0-8-8,47.989,47.989,0,0,0-40,21.507A47.989,47.989,0,0,0,160,16a8,8,0,0,0-8,8v8a48.07,48.07,0,0,0,40,47.321v12.94A47.806,47.806,0,0,0,160,80a8,8,0,0,0-8,8v8a48.07,48.07,0,0,0,40,47.321v12.94A47.806,47.806,0,0,0,160,144a8,8,0,0,0-8,8v8a48.07,48.07,0,0,0,40,47.321V216H96v-8.679A48.07,48.07,0,0,0,136,160v-8a8,8,0,0,0-8-8,47.806,47.806,0,0,0-32,12.261v-12.94A48.07,48.07,0,0,0,136,96V88a8,8,0,0,0-8-8A47.806,47.806,0,0,0,96,92.261V79.321A48.07,48.07,0,0,0,136,32V24a8,8,0,0,0-8-8A47.989,47.989,0,0,0,88,37.507,47.989,47.989,0,0,0,48,16a8,8,0,0,0-8,8v8A48.07,48.07,0,0,0,80,79.321v12.94A47.806,47.806,0,0,0,48,80a8,8,0,0,0-8,8v8a48.07,48.07,0,0,0,40,47.321v12.94A47.806,47.806,0,0,0,48,144a8,8,0,0,0-8,8v8a48.07,48.07,0,0,0,40,47.321V216H56a40,40,0,0,0,0,80Zm72,85.03c-.919.7-24,23.656-24,23.656V280a16.019,16.019,0,0,1,16-16h8ZM384,264h8a16.019,16.019,0,0,1,16,16V404.687s-23.081-22.962-24-23.657Zm71.984-102.983a32.063,32.063,0,0,1-23.968,29.966A32.063,32.063,0,0,1,455.984,161.017Zm0-64a32.063,32.063,0,0,1-23.968,29.966A32.063,32.063,0,0,1,455.984,97.017Zm0-64a32.063,32.063,0,0,1-23.968,29.966A32.063,32.063,0,0,1,455.984,33.017Zm-63.968,0a32.063,32.063,0,0,1,23.968,29.966A32.063,32.063,0,0,1,392.016,33.017Zm0,64a32.063,32.063,0,0,1,23.968,29.966A32.063,32.063,0,0,1,392.016,97.017Zm0,64a32.063,32.063,0,0,1,23.968,29.966A32.063,32.063,0,0,1,392.016,161.017Zm-48.032,0a32.063,32.063,0,0,1-23.968,29.966A32.063,32.063,0,0,1,343.984,161.017Zm0-64a32.063,32.063,0,0,1-23.968,29.966A32.063,32.063,0,0,1,343.984,97.017Zm0-64a32.063,32.063,0,0,1-23.968,29.966A32.063,32.063,0,0,1,343.984,33.017Zm-63.968,0a32.063,32.063,0,0,1,23.968,29.966A32.063,32.063,0,0,1,280.016,33.017Zm0,64a32.063,32.063,0,0,1,23.968,29.966A32.063,32.063,0,0,1,280.016,97.017Zm0,64a32.063,32.063,0,0,1,23.968,29.966A32.063,32.063,0,0,1,280.016,161.017Zm-48.032,0a32.063,32.063,0,0,1-23.968,29.966A32.063,32.063,0,0,1,231.984,161.017Zm0-64a32.063,32.063,0,0,1-23.968,29.966A32.063,32.063,0,0,1,231.984,97.017Zm0-64a32.063,32.063,0,0,1-23.968,29.966A32.063,32.063,0,0,1,231.984,33.017ZM208,232h96v16H208ZM168.016,33.017a32.063,32.063,0,0,1,23.968,29.966A32.063,32.063,0,0,1,168.016,33.017Zm0,64a32.063,32.063,0,0,1,23.968,29.966A32.063,32.063,0,0,1,168.016,97.017Zm0,64a32.063,32.063,0,0,1,23.968,29.966A32.063,32.063,0,0,1,168.016,161.017Zm-48.032,0a32.063,32.063,0,0,1-23.968,29.966A32.063,32.063,0,0,1,119.984,161.017Zm0-64a32.063,32.063,0,0,1-23.968,29.966A32.063,32.063,0,0,1,119.984,97.017Zm0-64A32.063,32.063,0,0,1,96.016,62.983,32.063,32.063,0,0,1,119.984,33.017Zm-63.968,0A32.063,32.063,0,0,1,79.984,62.983,32.063,32.063,0,0,1,56.016,33.017Zm0,64a32.063,32.063,0,0,1,23.968,29.966A32.063,32.063,0,0,1,56.016,97.017Zm0,64a32.063,32.063,0,0,1,23.968,29.966A32.063,32.063,0,0,1,56.016,161.017ZM70.843,357.843l11.314,11.314-3.128,3.127A23.847,23.847,0,0,0,72,389.255V496H56V389.255a39.735,39.735,0,0,1,11.716-28.284ZM176,280v16H160V280Zm32,16H192V280h16Zm32,0H224V280h16Zm112,32a24.042,24.042,0,0,0-16.745-22.879,32,32,0,0,0-62.51,0A24,24,0,0,0,280,352h48A24.027,24.027,0,0,0,352,328Zm-80,0a8.009,8.009,0,0,1,8-8,8,8,0,0,0,8-8,16,16,0,0,1,32,0,8,8,0,0,0,8,8,8,8,0,0,1,0,16H280A8.009,8.009,0,0,1,272,328Zm8,56H264V368h16Zm-24,16h16v16H256Zm56-16H296V368h16Zm-24,16h16v16H288Zm56-16H328V368h16Zm-8,32H320V400h16ZM160,320h40v16H160Zm80,48H160V352h80Zm0,32H184V384h56Zm-64,16h64v16H176Z"/></g></svg>
