<?xml version="1.0" encoding="iso-8859-1"?>
<!-- Generator: Adobe Illustrator 19.0.0, SVG Export Plug-In . SVG Version: 6.00 Build 0)  -->
<svg version="1.1" id="Capa_1" xmlns="http://www.w3.org/2000/svg" xmlns:xlink="http://www.w3.org/1999/xlink" x="0px" y="0px"
	 viewBox="0 0 512 512" style="enable-background:new 0 0 512 512;" xml:space="preserve">
<g>
	<g>
		<path style="fill:#9E9D24;" d="M25.6,238.933l14.592,14.592c1.594,1.57,3.736,2.457,5.973,2.475H153.6v-34.133H17.067
			c-2.266,0-4.441,0.888-6.059,2.475"/>
		<path style="fill:#607D8B;" d="M290.133,119.467c14.138,0,25.6,11.462,25.6,25.6v17.067h-51.2v-17.067
			C264.533,130.928,275.995,119.467,290.133,119.467z"/>
		<path style="fill:#9E9D24;" d="M384,162.133v59.733H196.267v-59.733c0-4.713,3.821-8.533,8.533-8.533h170.667
			C380.18,153.6,384,157.421,384,162.133z"/>
		<path style="fill:#CDDC39;" d="M358.4,162.133v59.733H196.267v-59.733c0-4.713,3.821-8.533,8.533-8.533h145.067
			C354.579,153.6,358.4,157.421,358.4,162.133z"/>
		<g>
			<path style="fill:#9E9D24;" d="M494.933,392.533h-42.667v-36.13c0.002-3.072,1.656-5.906,4.33-7.419
				c2.674-1.513,5.954-1.473,8.59,0.106l25.6,15.36c2.571,1.54,4.145,4.316,4.147,7.313V392.533z"/>
			<path style="fill:#9E9D24;" d="M443.733,196.267v119.467c0,4.713-3.821,8.533-8.533,8.533h-25.6c4.713,0,8.533-3.821,8.533-8.533
				V196.267H443.733z"/>
		</g>
		<path style="fill:#CDDC39;" d="M418.133,196.267v119.467c0,4.713-3.821,8.533-8.533,8.533H384L315.733,358.4h-76.8l-76.8-25.6
			l-29.099-29.099c-3.221-3.21-5.033-7.57-5.035-12.117v-78.251c0.028-9.414,7.653-17.039,17.067-17.067H418.133z"/>
		<polygon style="fill:#9E9D24;" points="384,324.267 315.733,358.4 238.933,358.4 162.133,332.8 153.6,324.267 		"/>
		<rect x="8.533" y="401.067" style="fill:#4E342E;" width="494.933" height="102.4"/>
		<rect x="8.533" y="401.067" style="fill:#795548;" width="469.333" height="102.4"/>
		<path style="fill:#FDD834;" d="M136.533,93.867c0,23.564-19.103,42.667-42.667,42.667c-4.334-0.013-8.644-0.645-12.8-1.877
			c-17.783-5.632-29.868-22.136-29.868-40.789s12.085-35.157,29.868-40.789c4.156-1.232,8.466-1.864,12.8-1.877
			C117.431,51.2,136.533,70.303,136.533,93.867z"/>
		<ellipse style="fill:#FFEB3A;" cx="81.067" cy="93.867" rx="29.867" ry="40.789"/>
		<g>
			<path style="fill:#F0C419;" d="M93.867,0c-4.713,0-8.533,3.821-8.533,8.533v8.533c0,4.713,3.821,8.533,8.533,8.533
				c4.713,0,8.533-3.821,8.533-8.533V8.533C102.4,3.821,98.579,0,93.867,0z"/>
			<path style="fill:#F0C419;" d="M39.561,27.494c-3.348-3.234-8.671-3.188-11.962,0.104s-3.338,8.614-0.104,11.962l6.033,6.033
				c2.143,2.218,5.315,3.108,8.299,2.327c2.984-0.781,5.313-3.111,6.094-6.094c0.781-2.984-0.109-6.156-2.327-8.299L39.561,27.494z"
				/>
			<path style="fill:#F0C419;" d="M17.067,85.333H8.533C3.821,85.333,0,89.154,0,93.867c0,4.713,3.821,8.533,8.533,8.533h8.533
				c4.713,0,8.533-3.821,8.533-8.533C25.6,89.154,21.779,85.333,17.067,85.333z"/>
			<path style="fill:#F0C419;" d="M33.527,142.14l-6.033,6.033c-2.218,2.143-3.108,5.315-2.327,8.299
				c0.781,2.983,3.111,5.313,6.094,6.094c2.984,0.781,6.156-0.109,8.299-2.327l6.033-6.033c2.218-2.143,3.108-5.315,2.327-8.299
				c-0.781-2.984-3.111-5.313-6.094-6.094C38.843,139.032,35.67,139.921,33.527,142.14z"/>
			<path style="fill:#F0C419;" d="M93.867,162.133c-4.713,0-8.533,3.821-8.533,8.533v8.533c0,4.713,3.821,8.533,8.533,8.533
				c4.713,0,8.533-3.82,8.533-8.533v-8.533C102.4,165.954,98.579,162.133,93.867,162.133z"/>
			<path style="fill:#F0C419;" d="M154.206,142.14c-3.348-3.234-8.671-3.188-11.962,0.104c-3.292,3.292-3.338,8.614-0.104,11.962
				l6.033,6.033c3.348,3.234,8.671,3.188,11.962-0.104s3.338-8.614,0.104-11.962L154.206,142.14z"/>
			<path style="fill:#F0C419;" d="M179.2,85.333h-8.533c-4.713,0-8.533,3.821-8.533,8.533c0,4.713,3.821,8.533,8.533,8.533h8.533
				c4.713,0,8.533-3.821,8.533-8.533C187.733,89.154,183.913,85.333,179.2,85.333z"/>
			<path style="fill:#F0C419;" d="M148.173,48.094c2.263,0,4.433-0.9,6.033-2.5l6.033-6.033c3.234-3.348,3.188-8.671-0.104-11.962
				s-8.614-3.338-11.962-0.104l-6.033,6.033c-2.44,2.44-3.169,6.11-1.849,9.298C141.611,46.014,144.722,48.093,148.173,48.094z"/>
		</g>
		<path style="fill:#1566C0;" d="M477.867,196.267l-23.637,70.997c-1.204,3.453-4.45,5.776-8.107,5.803h-45.056
			c-4.713,0-8.533-3.82-8.533-8.533v-68.267H477.867z"/>
		<path style="fill:#2296F3;" d="M452.267,196.267l-23.637,70.997c-1.204,3.453-4.45,5.776-8.107,5.803h-19.456
			c-4.713,0-8.533-3.82-8.533-8.533v-68.267H452.267z"/>
		<g>
			<path style="fill:#37474F;" d="M401.067,358.4c0,23.564-19.103,42.667-42.667,42.667c-4.334-0.013-8.644-0.645-12.8-1.877
				c-17.783-5.632-29.868-22.136-29.868-40.789c0-18.654,12.085-35.157,29.868-40.789c4.156-1.232,8.466-1.864,12.8-1.877
				C381.964,315.733,401.067,334.836,401.067,358.4z"/>
			<path style="fill:#37474F;" d="M238.933,358.4c0,23.564-19.103,42.667-42.667,42.667c-4.334-0.013-8.644-0.645-12.8-1.877
				c-17.783-5.632-29.868-22.136-29.868-40.789c0-18.654,12.085-35.157,29.868-40.789c4.156-1.232,8.466-1.864,12.8-1.877
				C219.831,315.733,238.933,334.836,238.933,358.4z"/>
		</g>
		<g>
			<ellipse style="fill:#607D8B;" cx="345.6" cy="358.4" rx="29.867" ry="40.789"/>
			<ellipse style="fill:#607D8B;" cx="183.467" cy="358.4" rx="29.867" ry="40.789"/>
		</g>
	</g>
	<g>
		<path d="M503.467,494.933H8.533c-4.713,0-8.533,3.821-8.533,8.533C0,508.18,3.821,512,8.533,512h494.933
			c4.713,0,8.533-3.82,8.533-8.533C512,498.754,508.18,494.933,503.467,494.933z"/>
		<path d="M503.467,426.667H409.6c-4.713,0-8.533,3.82-8.533,8.533s3.821,8.533,8.533,8.533h93.867c4.713,0,8.533-3.821,8.533-8.533
			S508.18,426.667,503.467,426.667z"/>
		<path d="M503.467,460.8H409.6c-4.713,0-8.533,3.821-8.533,8.533c0,4.713,3.821,8.533,8.533,8.533h93.867
			c4.713,0,8.533-3.821,8.533-8.533C512,464.621,508.18,460.8,503.467,460.8z"/>
		<path d="M375.467,426.667H8.533c-4.713,0-8.533,3.82-8.533,8.533s3.821,8.533,8.533,8.533h366.933
			c4.713,0,8.533-3.821,8.533-8.533S380.18,426.667,375.467,426.667z"/>
		<path d="M8.533,477.867H102.4c4.713,0,8.533-3.821,8.533-8.533c0-4.713-3.821-8.533-8.533-8.533H8.533
			C3.821,460.8,0,464.621,0,469.333C0,474.046,3.821,477.867,8.533,477.867z"/>
		<path d="M375.467,460.8H136.533c-4.713,0-8.533,3.821-8.533,8.533c0,4.713,3.821,8.533,8.533,8.533h238.933
			c4.713,0,8.533-3.821,8.533-8.533C384,464.621,380.18,460.8,375.467,460.8z"/>
		<path d="M507.861,368.154l-41.028-24.619l-14.566-21.828V281.6c3.674,0.001,6.937-2.351,8.098-5.837l23.654-70.963h10.914
			c4.713,0,8.533-3.821,8.533-8.533s-3.821-8.533-8.533-8.533h-102.4V153.6c0-4.713-3.82-8.533-8.533-8.533h-59.733
			c0-18.851-15.282-34.133-34.133-34.133S256,126.215,256,145.067h-59.733c-4.713,0-8.533,3.82-8.533,8.533v34.133H128
			c-4.713,0-8.533,3.821-8.533,8.533v17.067H8.533c-4.713,0-8.533,3.821-8.533,8.533V281.6c0,4.713,3.821,8.533,8.533,8.533
			s8.533-3.821,8.533-8.533v-51.2h102.4v17.067h-76.8c-4.713,0-8.533,3.821-8.533,8.533c0,4.713,3.821,8.533,8.533,8.533h76.8
			v34.133c0,2.263,0.9,4.433,2.5,6.033l29.295,29.295c-10.337,19.011-7.553,42.475,6.946,58.539H8.533
			c-4.713,0-8.533,3.82-8.533,8.533s3.821,8.533,8.533,8.533h494.933c4.713,0,8.533-3.821,8.533-8.533v-25.6
			C511.999,372.472,510.429,369.696,507.861,368.154z M246.699,366.933h61.269c1.615,9.533,5.906,18.412,12.373,25.6h-86.016
			C240.792,385.345,245.083,376.467,246.699,366.933z M324.267,358.4c0-18.851,15.282-34.133,34.133-34.133
			c18.851,0,34.133,15.282,34.133,34.133c0,18.851-15.282,34.133-34.133,34.133C339.549,392.533,324.267,377.251,324.267,358.4z
			 M402.671,332.8h36.497l13.099,19.627v40.107h-55.808C411.324,376.103,413.838,351.938,402.671,332.8z M446.114,264.533h-45.047
			V204.8h64.964L446.114,264.533z M290.133,128c9.426,0,17.067,7.641,17.067,17.067h-34.133
			C273.067,135.641,280.708,128,290.133,128z M204.8,162.133h170.667v25.6H204.8V162.133z M136.533,247.467h179.2
			c4.713,0,8.533-3.821,8.533-8.533c0-4.713-3.821-8.533-8.533-8.533h-179.2v-25.6H384v25.6h-34.133
			c-4.713,0-8.533,3.821-8.533,8.533c0,4.713,3.821,8.533,8.533,8.533H384v25.6c0,4.713,3.82,8.533,8.533,8.533H435.2v34.133
			h-48.555c-17.111-11.378-39.379-11.378-56.491,0h-31.488c-4.713,0-8.533,3.821-8.533,8.533s3.82,8.533,8.533,8.533h15.462
			c-3.059,5.274-5.146,11.055-6.161,17.067h-61.269c-1.015-6.012-3.102-11.793-6.161-17.067h23.996c4.713,0,8.533-3.82,8.533-8.533
			s-3.82-8.533-8.533-8.533h-40.021c-19.486-12.969-45.301-10.99-62.583,4.796l-25.395-25.395V247.467z M162.133,358.4
			c0-18.851,15.282-34.133,34.133-34.133S230.4,339.549,230.4,358.4c0,18.851-15.282,34.133-34.133,34.133
			S162.133,377.251,162.133,358.4z M469.333,392.533v-27.597l25.6,15.36v12.237H469.333z"/>
		<path d="M93.867,42.667c-28.277,0-51.2,22.923-51.2,51.2s22.923,51.2,51.2,51.2s51.2-22.923,51.2-51.2
			C145.038,65.601,122.132,42.695,93.867,42.667z M93.867,128c-18.851,0-34.133-15.282-34.133-34.133s15.282-34.133,34.133-34.133
			S128,75.015,128,93.867c0,9.053-3.596,17.735-9.997,24.136C111.601,124.404,102.919,128,93.867,128z"/>
		<path d="M93.867,0c-4.713,0-8.533,3.821-8.533,8.533v8.533c0,4.713,3.821,8.533,8.533,8.533c4.713,0,8.533-3.821,8.533-8.533
			V8.533C102.4,3.821,98.579,0,93.867,0z"/>
		<path d="M39.561,48.094c3.451-0.001,6.562-2.08,7.882-5.268c1.32-3.188,0.591-6.858-1.849-9.298l-6.033-6.033
			c-3.348-3.234-8.671-3.188-11.962,0.104s-3.338,8.614-0.104,11.962l6.033,6.033C35.127,47.194,37.298,48.093,39.561,48.094z"/>
		<path d="M8.533,102.4h8.533c4.713,0,8.533-3.821,8.533-8.533c0-4.713-3.821-8.533-8.533-8.533H8.533
			C3.821,85.333,0,89.154,0,93.867C0,98.579,3.821,102.4,8.533,102.4z"/>
		<path d="M27.494,160.239c3.332,3.331,8.734,3.331,12.066,0l6.033-6.033c2.218-2.143,3.108-5.315,2.327-8.299
			c-0.781-2.984-3.111-5.313-6.094-6.094c-2.984-0.781-6.156,0.109-8.299,2.327l-6.033,6.033
			C24.163,151.505,24.163,156.907,27.494,160.239z"/>
		<path d="M85.333,170.667v8.533c0,4.713,3.821,8.533,8.533,8.533c4.713,0,8.533-3.82,8.533-8.533v-8.533
			c0-4.713-3.821-8.533-8.533-8.533C89.154,162.133,85.333,165.954,85.333,170.667z"/>
		<path d="M154.206,142.14c-3.348-3.234-8.671-3.188-11.962,0.104c-3.292,3.292-3.338,8.614-0.104,11.962l6.033,6.033
			c3.348,3.234,8.671,3.188,11.962-0.104s3.338-8.614,0.104-11.962L154.206,142.14z"/>
		<path d="M170.667,102.4h8.533c4.713,0,8.533-3.821,8.533-8.533c0-4.713-3.82-8.533-8.533-8.533h-8.533
			c-4.713,0-8.533,3.821-8.533,8.533C162.133,98.579,165.954,102.4,170.667,102.4z"/>
		<path d="M148.173,27.494l-6.033,6.033c-2.218,2.143-3.108,5.315-2.327,8.299c0.781,2.984,3.111,5.313,6.094,6.094
			c2.984,0.781,6.156-0.109,8.299-2.327l6.033-6.033c3.234-3.348,3.188-8.671-0.104-11.962S151.521,24.261,148.173,27.494z"/>
	</g>
</g>
<g>
</g>
<g>
</g>
<g>
</g>
<g>
</g>
<g>
</g>
<g>
</g>
<g>
</g>
<g>
</g>
<g>
</g>
<g>
</g>
<g>
</g>
<g>
</g>
<g>
</g>
<g>
</g>
<g>
</g>
</svg>
